HIERARCHY
ROOT joint_Root
{
	OFFSET 0.0 0.0 0.0
	CHANNELS 6 Xposition Yposition Zposition Zrotation Xrotation Yrotation 
	JOINT Hips
	{
		OFFSET 4.5925 91.4895 -427.239
		CHANNELS 6 Xposition Yposition Zposition Zrotation Xrotation Yrotation 
		JOINT Spine
		{
			OFFSET 15.7357 0.0 0.0
			CHANNELS 6 Xposition Yposition Zposition Zrotation Xrotation Yrotation 
			JOINT Chest
			{
				OFFSET 8.98455 -0.406207 0.0
				CHANNELS 6 Xposition Yposition Zposition Zrotation Xrotation Yrotation 
				JOINT Neck
				{
					OFFSET 16.3773 0.0 0.0
					CHANNELS 6 Xposition Yposition Zposition Zrotation Xrotation Yrotation 
					JOINT Head
					{
						OFFSET 6.45672 0.0 0.0
						CHANNELS 6 Xposition Yposition Zposition Zrotation Xrotation Yrotation 
						End Site
						{
							OFFSET 0.0 0.0 0.0
						}
					}
				}
				JOINT Shoulder_L
				{
					OFFSET 12.9942 -0.242716 4.98039
					CHANNELS 6 Xposition Yposition Zposition Zrotation Xrotation Yrotation 
					JOINT UpperArm_L
					{
						OFFSET 5.34809 0.0 0.0
						CHANNELS 6 Xposition Yposition Zposition Zrotation Xrotation Yrotation 
						JOINT LowerArm_L
						{
							OFFSET 24.3286 1.87007e-05 0.0
							CHANNELS 6 Xposition Yposition Zposition Zrotation Xrotation Yrotation 
							JOINT Hand_L
							{
								OFFSET 22.2916 0.0 0.0
								CHANNELS 6 Xposition Yposition Zposition Zrotation Xrotation Yrotation 
								End Site
								{
									OFFSET 0.0 0.0 0.0
								}
							}
						}
					}
				}
				JOINT Shoulder_R
				{
					OFFSET 12.9945 -0.242716 -4.98039
					CHANNELS 6 Xposition Yposition Zposition Zrotation Xrotation Yrotation 
					JOINT UpperArm_R
					{
						OFFSET -5.34813 0.0 0.0
						CHANNELS 6 Xposition Yposition Zposition Zrotation Xrotation Yrotation 
						JOINT LowerArm_R
						{
							OFFSET -24.3289 0.000322201 0.0
							CHANNELS 6 Xposition Yposition Zposition Zrotation Xrotation Yrotation 
							JOINT Hand_R
							{
								OFFSET -22.2915 -0.000108084 0.0
								CHANNELS 6 Xposition Yposition Zposition Zrotation Xrotation Yrotation 
								End Site
								{
									OFFSET 0.0 0.0 0.0
								}
							}
						}
					}
				}
			}
		}
		JOINT UpperLeg_L
		{
			OFFSET -2.19248 -6.46944 0.0
			CHANNELS 6 Xposition Yposition Zposition Zrotation Xrotation Yrotation 
			JOINT LowerLeg_L
			{
				OFFSET 39.0811 0.0 -1.23785e-05
				CHANNELS 6 Xposition Yposition Zposition Zrotation Xrotation Yrotation 
				JOINT Foot_L
				{
					OFFSET 40.9854 0.0 -1.26872e-05
					CHANNELS 6 Xposition Yposition Zposition Zrotation Xrotation Yrotation 
					JOINT Toes_L
					{
						OFFSET 11.7543 0.0 0.0
						CHANNELS 6 Xposition Yposition Zposition Zrotation Xrotation Yrotation 
						End Site
						{
							OFFSET 0.0 0.0 0.0
						}
					}
				}
			}
		}
		JOINT UpperLeg_R
		{
			OFFSET -2.19251 6.46944 0.0
			CHANNELS 6 Xposition Yposition Zposition Zrotation Xrotation Yrotation 
			JOINT LowerLeg_R
			{
				OFFSET -39.0811 -0.00228153 -0.0401928
				CHANNELS 6 Xposition Yposition Zposition Zrotation Xrotation Yrotation 
				JOINT Foot_R
				{
					OFFSET -40.9854 0.0 0.0
					CHANNELS 6 Xposition Yposition Zposition Zrotation Xrotation Yrotation 
					JOINT Toes_R
					{
						OFFSET -11.7543 0.0 0.0
						CHANNELS 6 Xposition Yposition Zposition Zrotation Xrotation Yrotation 
						End Site
						{
							OFFSET 0.0 0.0 0.0
						}
					}
				}
			}
		}
	}
}
MOTION
Frames:	4
Frame Time:	0.0333333
0.000000 0.000000 0.000000 0.000000 0.000000 -0.000000 -1.227440 91.266700 -0.368773 89.950000 -2.103650 4.761620 15.735700 0.000005 -0.000001 77.209200 84.024000 -76.976000 8.984550 -0.406207 -0.000000 3.898250 -2.650200 0.556171 16.377300 -0.000001 -0.000001 1.782920 -2.941590 2.042280 6.456720 -0.000001 -0.000000 -8.050000 -0.605335 -0.430889 12.994200 -0.242716 4.980390 -91.476000 4.935560 -73.327200 5.348090 -0.000007 -0.000001 -61.651800 43.053800 -14.873100 24.328600 0.000019 0.000005 6.216250 17.290500 -20.126100 22.291600 -0.000001 0.000005 10.295700 5.220900 2.189690 12.994500 -0.242716 -4.980390 88.338200 9.838870 -80.363700 -5.348130 -0.000001 -0.000004 -63.753000 19.200800 -15.469500 -24.328900 0.000322 -0.000009 -1.027520 -4.960950 -11.701500 -22.291500 -0.000108 -0.000004 7.279120 5.314450 -0.333556 -2.192480 -6.469440 -0.000000 -176.202000 -11.218300 -5.318840 39.081100 -0.000007 -0.000012 -0.165160 0.304055 28.510700 40.985400 -0.000006 -0.000013 -0.255070 5.060060 -68.336900 11.754300 -0.000000 0.000003 -0.000153 -0.001474 -16.633600 -2.192510 6.469440 -0.000001 177.029000 18.406200 175.150000 -39.081100 -0.002282 -0.040193 -0.120029 0.225260 28.701600 -40.985400 0.000008 0.000006 4.126870 10.597900 -69.491300 -11.754300 -0.000006 -0.000006 -0.003914 -0.050539 -18.628800
0.000000 0.000000 0.000000 0.000000 0.000000 -0.000000 -1.191180 91.119100 -0.682711 90.258700 -1.857230 4.135570 15.735700 0.000005 -0.000001 72.584700 84.348700 -72.823200 8.984550 -0.406207 -0.000000 3.016160 -3.369530 -0.387886 16.377300 -0.000001 -0.000001 1.937780 -1.910090 1.348760 6.456720 -0.000001 -0.000000 -7.990030 0.825319 -0.326605 12.994200 -0.242716 4.980390 -91.197900 3.860050 -72.744200 5.348090 -0.000007 -0.000001 -62.478600 41.842500 -13.092900 24.328600 0.000019 0.000005 6.481860 17.076400 -21.151900 22.291600 -0.000001 0.000005 10.632800 5.220580 2.197810 12.994500 -0.242716 -4.980390 88.519700 8.104540 -79.611900 -5.348130 -0.000001 -0.000004 -63.072900 11.144600 -18.565900 -24.328900 0.000322 -0.000009 -0.464044 -3.754710 -7.029680 -22.291500 -0.000108 -0.000004 5.525970 5.273030 0.821650 -2.192480 -6.469440 -0.000000 -176.710000 -11.137000 -6.658870 39.081100 -0.000007 -0.000012 -0.169407 0.301598 29.323000 40.985400 -0.000006 -0.000013 -0.139492 5.179050 -68.483000 11.754300 -0.000000 0.000003 -0.000197 -0.001831 -16.646700 -2.192510 6.469440 -0.000001 177.736000 16.314900 173.290000 -39.081100 -0.002282 -0.040193 0.002512 0.001352 30.281800 -40.985400 0.000008 0.000006 6.305340 7.521730 -70.333200 -11.754300 -0.000006 -0.000006 -0.003413 -0.045187 -18.411000
0.000000 0.000000 0.000000 0.000000 0.000000 -0.000000 -1.225530 91.028100 -0.708733 90.263000 -1.790280 4.259920 15.735700 0.000005 -0.000001 72.923900 84.533100 -73.746100 8.984550 -0.406207 -0.000000 2.667280 -3.171210 -1.569190 16.377300 -0.000001 -0.000001 2.021530 -1.524890 0.892316 6.456720 -0.000001 -0.000000 -7.752740 1.150990 0.166295 12.994200 -0.242716 4.980390 -90.902700 2.837500 -72.343400 5.348090 -0.000007 -0.000001 -62.089500 41.273100 -13.291600 24.328600 0.000019 0.000005 6.463860 17.117400 -21.053100 22.291600 -0.000001 0.000005 10.977100 5.226820 2.037630 12.994500 -0.242716 -4.980390 88.757400 6.323310 -78.858600 -5.348130 -0.000001 -0.000004 -59.931700 -1.131140 -22.743300 -24.328900 0.000322 -0.000009 -0.146363 -3.168410 -2.623080 -22.291500 -0.000108 -0.000004 4.424420 5.204320 2.608620 -2.192480 -6.469440 -0.000000 -176.535000 -11.854600 -6.792750 39.081100 -0.000007 -0.000012 -0.172077 0.300106 29.829700 40.985400 -0.000006 -0.000013 0.075363 6.055990 -68.705200 11.754300 -0.000000 0.000003 -0.000229 -0.002077 -16.655600 -2.192510 6.469440 -0.000001 177.732000 16.827900 173.088000 -39.081100 -0.002282 -0.040193 0.033384 -0.050225 30.920400 -40.985400 0.000008 0.000006 7.128790 7.742980 -70.718700 -11.754300 -0.000006 -0.000006 -0.003053 -0.041201 -18.248700
0.000000 0.000000 0.000000 0.000000 0.000000 -0.000000 -1.410660 91.171400 -0.389201 89.857500 -1.434420 4.864070 15.735700 0.000005 -0.000001 75.232000 84.640900 -76.605100 8.984550 -0.406207 -0.000000 2.570240 -2.667590 -2.683890 16.377300 -0.000001 -0.000001 2.496780 -1.424770 0.650478 6.456720 -0.000001 -0.000000 -7.809100 0.827034 1.151050 12.994200 -0.242716 4.980390 -90.863900 2.583450 -71.503800 5.348090 -0.000007 -0.000001 -60.642200 40.213900 -14.463300 24.328600 0.000019 0.000005 6.578130 17.914300 -20.551100 22.291600 -0.000001 0.000005 11.353400 5.213390 2.381080 12.994500 -0.242716 -4.980390 88.886300 5.317890 -78.153300 -5.348130 -0.000001 -0.000004 -53.121100 -13.556300 -27.446400 -24.328900 0.000322 -0.000009 -0.000795 -3.651510 -0.000027 -22.291500 -0.000108 -0.000004 6.225760 5.144240 4.075980 -2.192480 -6.469440 -0.000000 -175.634000 -12.760500 -5.551910 39.081100 -0.000007 -0.000012 -0.166912 0.299747 29.111100 40.985400 -0.000006 -0.000013 0.212116 7.394790 -68.540300 11.754300 -0.000000 0.000003 -0.000213 -0.001953 -16.651100 -2.192510 6.469440 -0.000001 177.395000 19.705800 174.915000 -39.081100 -0.002282 -0.040193 -0.005917 0.016270 29.540100 -40.985400 0.000008 0.000006 7.013990 10.390500 -70.585400 -11.754300 -0.000006 -0.000006 -0.003185 -0.042681 -18.308900
